<svg enable-background="new 0 0 24 24" height="512" viewBox="0 0 24 24" width="512" xmlns="http://www.w3.org/2000/svg"><path d="m13 17.5c-.55 0-1-.45-1-1 0-.15.03-.29.09-.42l1.91-4.08-1.91-4.08c-.06-.13-.09-.27-.09-.42 0-.55.45-1 1-1 .15 0 .28.03.41.09l10 4.5c.35.15.59.5.59.91s-.24.76-.59.91l-10 4.5c-.13.06-.26.09-.41.09z" fill="#2196f3"/><path d="m0 12c0-6.065 4.935-11 11-11 3.335 0 6.444 1.484 8.529 4.073.348.431.278 1.06-.151 1.406-.43.346-1.06.278-1.406-.152-1.704-2.114-4.244-3.327-6.972-3.327-4.962 0-9 4.037-9 9s4.038 9 9 9c2.728 0 5.268-1.213 6.971-3.327.346-.431.976-.498 1.406-.152.429.348.499.977.151 1.406-2.084 2.589-5.193 4.073-8.528 4.073-6.065 0-11-4.935-11-11z" fill="#b0bec5"/><path d="m24 12h-10l-1.91 4.08c-.06.13-.09.27-.09.42 0 .55.45 1 1 1 .15 0 .28-.03.41-.09l10-4.5c.35-.15.59-.5.59-.91z" fill="#1d83d4"/><path d="m2 12h-2c0 6.065 4.935 11 11 11 3.335 0 6.444-1.484 8.529-4.073.347-.43.278-1.059-.151-1.406-.185-.149-.406-.221-.627-.221-.292 0-.582.127-.78.373-1.703 2.114-4.243 3.327-6.971 3.327-4.962 0-9-4.037-9-9z" fill="#99a5ac"/></svg>